<mxfile host="app.diagrams.net" modified="2020-11-18T23:41:27.607Z" agent="5.0 (Windows NT 10.0; Win64; x64) AppleWebKit/537.36 (KHTML, like Gecko) Chrome/86.0.4240.198 Safari/537.36" etag="6fIlSuuYIKOv9ECuJlgi" version="13.10.0" type="github">
  <diagram id="nN7OSkBMJpcFrZvUANUn" name="Page-1">
    <mxGraphModel dx="1422" dy="762" grid="1" gridSize="10" guides="1" tooltips="1" connect="1" arrows="1" fold="1" page="1" pageScale="1" pageWidth="850" pageHeight="1100" math="0" shadow="0">
      <root>
        <mxCell id="0" />
        <mxCell id="1" parent="0" />
        <mxCell id="VAKHH2p_I6ABRCXs9P8t-8" style="rounded=0;orthogonalLoop=1;jettySize=auto;html=1;exitX=0.5;exitY=1;exitDx=0;exitDy=0;entryX=1;entryY=0;entryDx=0;entryDy=0;endArrow=classic;endFill=1;" edge="1" parent="1" source="VAKHH2p_I6ABRCXs9P8t-12" target="rpautWCwEuh00-_JtCUM-8">
          <mxGeometry relative="1" as="geometry" />
        </mxCell>
        <mxCell id="rpautWCwEuh00-_JtCUM-24" value="C" style="whiteSpace=wrap;html=1;align=center;" parent="1" vertex="1">
          <mxGeometry x="80" y="40" width="40" height="40" as="geometry" />
        </mxCell>
        <mxCell id="rpautWCwEuh00-_JtCUM-25" value="D" style="whiteSpace=wrap;html=1;align=center;" parent="1" vertex="1">
          <mxGeometry x="120" y="40" width="40" height="40" as="geometry" />
        </mxCell>
        <mxCell id="rpautWCwEuh00-_JtCUM-26" value="S" style="whiteSpace=wrap;html=1;align=center;" parent="1" vertex="1">
          <mxGeometry x="160" y="40" width="40" height="40" as="geometry" />
        </mxCell>
        <mxCell id="rpautWCwEuh00-_JtCUM-27" value="T" style="whiteSpace=wrap;html=1;align=center;" parent="1" vertex="1">
          <mxGeometry x="200" y="40" width="40" height="40" as="geometry" />
        </mxCell>
        <mxCell id="rpautWCwEuh00-_JtCUM-28" style="edgeStyle=orthogonalEdgeStyle;rounded=0;orthogonalLoop=1;jettySize=auto;html=1;exitX=0.5;exitY=1;exitDx=0;exitDy=0;entryX=0.5;entryY=0;entryDx=0;entryDy=0;endArrow=none;endFill=0;" parent="1" source="rpautWCwEuh00-_JtCUM-38" target="rpautWCwEuh00-_JtCUM-31" edge="1">
          <mxGeometry relative="1" as="geometry" />
        </mxCell>
        <mxCell id="rpautWCwEuh00-_JtCUM-34" value="S" style="whiteSpace=wrap;html=1;align=center;" parent="1" vertex="1">
          <mxGeometry x="360" y="240" width="40" height="40" as="geometry" />
        </mxCell>
        <mxCell id="rpautWCwEuh00-_JtCUM-45" style="edgeStyle=orthogonalEdgeStyle;rounded=0;orthogonalLoop=1;jettySize=auto;html=1;exitX=0.5;exitY=0;exitDx=0;exitDy=0;entryX=0.5;entryY=1;entryDx=0;entryDy=0;endArrow=none;endFill=0;" parent="1" source="rpautWCwEuh00-_JtCUM-35" target="rpautWCwEuh00-_JtCUM-39" edge="1">
          <mxGeometry relative="1" as="geometry">
            <Array as="points">
              <mxPoint x="380" y="240" />
              <mxPoint x="380" y="220" />
              <mxPoint x="320" y="220" />
            </Array>
          </mxGeometry>
        </mxCell>
        <mxCell id="rpautWCwEuh00-_JtCUM-35" value="T" style="whiteSpace=wrap;html=1;align=center;" parent="1" vertex="1">
          <mxGeometry x="400" y="240" width="40" height="40" as="geometry" />
        </mxCell>
        <mxCell id="rpautWCwEuh00-_JtCUM-38" value="D" style="whiteSpace=wrap;html=1;align=center;" parent="1" vertex="1">
          <mxGeometry x="260" y="160" width="40" height="40" as="geometry" />
        </mxCell>
        <mxCell id="rpautWCwEuh00-_JtCUM-39" value="T" style="whiteSpace=wrap;html=1;align=center;" parent="1" vertex="1">
          <mxGeometry x="300" y="160" width="40" height="40" as="geometry" />
        </mxCell>
        <mxCell id="rpautWCwEuh00-_JtCUM-32" value="A" style="whiteSpace=wrap;html=1;align=center;" parent="1" vertex="1">
          <mxGeometry x="160" y="240" width="40" height="40" as="geometry" />
        </mxCell>
        <mxCell id="rpautWCwEuh00-_JtCUM-31" value="C" style="whiteSpace=wrap;html=1;align=center;" parent="1" vertex="1">
          <mxGeometry x="200" y="240" width="40" height="40" as="geometry" />
        </mxCell>
        <mxCell id="rpautWCwEuh00-_JtCUM-30" value="D" style="whiteSpace=wrap;html=1;align=center;" parent="1" vertex="1">
          <mxGeometry x="240" y="240" width="40" height="40" as="geometry" />
        </mxCell>
        <mxCell id="rpautWCwEuh00-_JtCUM-43" value="M" style="whiteSpace=wrap;html=1;align=center;" parent="1" vertex="1">
          <mxGeometry x="320" y="240" width="40" height="40" as="geometry" />
        </mxCell>
        <mxCell id="rpautWCwEuh00-_JtCUM-46" value="Text" style="text;html=1;strokeColor=none;fillColor=none;align=center;verticalAlign=middle;whiteSpace=wrap;rounded=0;" parent="1" vertex="1">
          <mxGeometry x="410" y="280" width="40" height="20" as="geometry" />
        </mxCell>
        <mxCell id="rpautWCwEuh00-_JtCUM-47" value="Example: A B-tree of order 4 (m=4) built by inserting &lt;strike&gt;C, S, D, T, A, M, P, I, B, W,&lt;br&gt;N, G, U&lt;/strike&gt;, R, K, E, H, O, L, J, Y, Q, Z, F, X, V in that order" style="text;html=1;strokeColor=none;fillColor=none;align=center;verticalAlign=middle;whiteSpace=wrap;rounded=0;" parent="1" vertex="1">
          <mxGeometry x="300" width="540" height="80" as="geometry" />
        </mxCell>
        <mxCell id="VAKHH2p_I6ABRCXs9P8t-17" value="" style="group" vertex="1" connectable="0" parent="1">
          <mxGeometry x="200" y="480" width="160" height="40" as="geometry" />
        </mxCell>
        <mxCell id="rpautWCwEuh00-_JtCUM-14" value="I" style="whiteSpace=wrap;html=1;align=center;" parent="VAKHH2p_I6ABRCXs9P8t-17" vertex="1">
          <mxGeometry x="40" width="40" height="40" as="geometry" />
        </mxCell>
        <mxCell id="rpautWCwEuh00-_JtCUM-19" value="M" style="whiteSpace=wrap;html=1;align=center;" parent="VAKHH2p_I6ABRCXs9P8t-17" vertex="1">
          <mxGeometry x="80" width="40" height="40" as="geometry" />
        </mxCell>
        <mxCell id="rpautWCwEuh00-_JtCUM-21" value="G" style="whiteSpace=wrap;html=1;align=center;" parent="VAKHH2p_I6ABRCXs9P8t-17" vertex="1">
          <mxGeometry width="40" height="40" as="geometry" />
        </mxCell>
        <mxCell id="VAKHH2p_I6ABRCXs9P8t-7" value="" style="whiteSpace=wrap;html=1;align=center;" vertex="1" parent="VAKHH2p_I6ABRCXs9P8t-17">
          <mxGeometry x="120" width="40" height="40" as="geometry" />
        </mxCell>
        <mxCell id="VAKHH2p_I6ABRCXs9P8t-18" value="" style="group" vertex="1" connectable="0" parent="1">
          <mxGeometry y="480" width="160" height="40" as="geometry" />
        </mxCell>
        <mxCell id="rpautWCwEuh00-_JtCUM-2" value="D" style="whiteSpace=wrap;html=1;align=center;" parent="VAKHH2p_I6ABRCXs9P8t-18" vertex="1">
          <mxGeometry x="120" width="40" height="40" as="geometry" />
        </mxCell>
        <mxCell id="rpautWCwEuh00-_JtCUM-9" value="C" style="whiteSpace=wrap;html=1;align=center;" parent="VAKHH2p_I6ABRCXs9P8t-18" vertex="1">
          <mxGeometry x="80" width="40" height="40" as="geometry" />
        </mxCell>
        <mxCell id="rpautWCwEuh00-_JtCUM-10" value="A" style="whiteSpace=wrap;html=1;align=center;" parent="VAKHH2p_I6ABRCXs9P8t-18" vertex="1">
          <mxGeometry width="40" height="40" as="geometry" />
        </mxCell>
        <mxCell id="rpautWCwEuh00-_JtCUM-52" value="B" style="whiteSpace=wrap;html=1;align=center;" parent="VAKHH2p_I6ABRCXs9P8t-18" vertex="1">
          <mxGeometry x="40" width="40" height="40" as="geometry" />
        </mxCell>
        <mxCell id="VAKHH2p_I6ABRCXs9P8t-19" value="" style="group" vertex="1" connectable="0" parent="1">
          <mxGeometry x="280" y="400" width="160" height="40" as="geometry" />
        </mxCell>
        <mxCell id="rpautWCwEuh00-_JtCUM-11" value="P" style="whiteSpace=wrap;html=1;align=center;" parent="VAKHH2p_I6ABRCXs9P8t-19" vertex="1">
          <mxGeometry x="80" width="40" height="40" as="geometry" />
        </mxCell>
        <mxCell id="rpautWCwEuh00-_JtCUM-22" value="M" style="whiteSpace=wrap;html=1;align=center;" parent="VAKHH2p_I6ABRCXs9P8t-19" vertex="1">
          <mxGeometry x="40" width="40" height="40" as="geometry" />
        </mxCell>
        <mxCell id="VAKHH2p_I6ABRCXs9P8t-9" value="D" style="whiteSpace=wrap;html=1;align=center;" vertex="1" parent="VAKHH2p_I6ABRCXs9P8t-19">
          <mxGeometry width="40" height="40" as="geometry" />
        </mxCell>
        <mxCell id="VAKHH2p_I6ABRCXs9P8t-12" value="W" style="whiteSpace=wrap;html=1;align=center;" vertex="1" parent="VAKHH2p_I6ABRCXs9P8t-19">
          <mxGeometry x="120" width="40" height="40" as="geometry" />
        </mxCell>
        <mxCell id="VAKHH2p_I6ABRCXs9P8t-20" value="" style="group" vertex="1" connectable="0" parent="1">
          <mxGeometry x="600" y="480" width="160" height="40" as="geometry" />
        </mxCell>
        <mxCell id="rpautWCwEuh00-_JtCUM-5" value="S" style="whiteSpace=wrap;html=1;align=center;" parent="VAKHH2p_I6ABRCXs9P8t-20" vertex="1">
          <mxGeometry width="40" height="40" as="geometry" />
        </mxCell>
        <mxCell id="rpautWCwEuh00-_JtCUM-8" value="T" style="whiteSpace=wrap;html=1;align=center;" parent="VAKHH2p_I6ABRCXs9P8t-20" vertex="1">
          <mxGeometry x="40" width="40" height="40" as="geometry" />
        </mxCell>
        <mxCell id="rpautWCwEuh00-_JtCUM-53" value="U" style="whiteSpace=wrap;html=1;align=center;" parent="VAKHH2p_I6ABRCXs9P8t-20" vertex="1">
          <mxGeometry x="80" width="40" height="40" as="geometry" />
        </mxCell>
        <mxCell id="VAKHH2p_I6ABRCXs9P8t-11" value="W" style="whiteSpace=wrap;html=1;align=center;" vertex="1" parent="VAKHH2p_I6ABRCXs9P8t-20">
          <mxGeometry x="120" width="40" height="40" as="geometry" />
        </mxCell>
        <mxCell id="VAKHH2p_I6ABRCXs9P8t-21" value="" style="group" vertex="1" connectable="0" parent="1">
          <mxGeometry x="720" y="560" width="160" height="40" as="geometry" />
        </mxCell>
        <mxCell id="VAKHH2p_I6ABRCXs9P8t-13" value="" style="whiteSpace=wrap;html=1;align=center;" vertex="1" parent="VAKHH2p_I6ABRCXs9P8t-21">
          <mxGeometry width="40" height="40" as="geometry" />
        </mxCell>
        <mxCell id="VAKHH2p_I6ABRCXs9P8t-14" value="" style="whiteSpace=wrap;html=1;align=center;" vertex="1" parent="VAKHH2p_I6ABRCXs9P8t-21">
          <mxGeometry x="40" width="40" height="40" as="geometry" />
        </mxCell>
        <mxCell id="VAKHH2p_I6ABRCXs9P8t-15" value="" style="whiteSpace=wrap;html=1;align=center;" vertex="1" parent="VAKHH2p_I6ABRCXs9P8t-21">
          <mxGeometry x="80" width="40" height="40" as="geometry" />
        </mxCell>
        <mxCell id="VAKHH2p_I6ABRCXs9P8t-16" value="" style="whiteSpace=wrap;html=1;align=center;" vertex="1" parent="VAKHH2p_I6ABRCXs9P8t-21">
          <mxGeometry x="120" width="40" height="40" as="geometry" />
        </mxCell>
        <mxCell id="VAKHH2p_I6ABRCXs9P8t-22" value="" style="group" vertex="1" connectable="0" parent="1">
          <mxGeometry x="400" y="480" width="160" height="40" as="geometry" />
        </mxCell>
        <mxCell id="VAKHH2p_I6ABRCXs9P8t-23" value="P" style="whiteSpace=wrap;html=1;align=center;" vertex="1" parent="VAKHH2p_I6ABRCXs9P8t-22">
          <mxGeometry x="40" width="40" height="40" as="geometry" />
        </mxCell>
        <mxCell id="VAKHH2p_I6ABRCXs9P8t-24" value="" style="whiteSpace=wrap;html=1;align=center;" vertex="1" parent="VAKHH2p_I6ABRCXs9P8t-22">
          <mxGeometry x="80" width="40" height="40" as="geometry" />
        </mxCell>
        <mxCell id="VAKHH2p_I6ABRCXs9P8t-25" value="N" style="whiteSpace=wrap;html=1;align=center;" vertex="1" parent="VAKHH2p_I6ABRCXs9P8t-22">
          <mxGeometry width="40" height="40" as="geometry" />
        </mxCell>
        <mxCell id="VAKHH2p_I6ABRCXs9P8t-26" value="" style="whiteSpace=wrap;html=1;align=center;" vertex="1" parent="VAKHH2p_I6ABRCXs9P8t-22">
          <mxGeometry x="120" width="40" height="40" as="geometry" />
        </mxCell>
        <mxCell id="VAKHH2p_I6ABRCXs9P8t-28" style="edgeStyle=none;rounded=0;orthogonalLoop=1;jettySize=auto;html=1;exitX=0.5;exitY=1;exitDx=0;exitDy=0;entryX=0;entryY=0;entryDx=0;entryDy=0;endArrow=classic;endFill=1;" edge="1" parent="1" source="rpautWCwEuh00-_JtCUM-11" target="VAKHH2p_I6ABRCXs9P8t-24">
          <mxGeometry relative="1" as="geometry" />
        </mxCell>
        <mxCell id="VAKHH2p_I6ABRCXs9P8t-29" style="edgeStyle=none;rounded=0;orthogonalLoop=1;jettySize=auto;html=1;exitX=0.5;exitY=1;exitDx=0;exitDy=0;entryX=0;entryY=0;entryDx=0;entryDy=0;endArrow=classic;endFill=1;" edge="1" parent="1" source="rpautWCwEuh00-_JtCUM-22" target="rpautWCwEuh00-_JtCUM-19">
          <mxGeometry relative="1" as="geometry" />
        </mxCell>
        <mxCell id="VAKHH2p_I6ABRCXs9P8t-30" style="edgeStyle=none;rounded=0;orthogonalLoop=1;jettySize=auto;html=1;exitX=0.5;exitY=1;exitDx=0;exitDy=0;entryX=1;entryY=0;entryDx=0;entryDy=0;endArrow=classic;endFill=1;" edge="1" parent="1" source="VAKHH2p_I6ABRCXs9P8t-9" target="rpautWCwEuh00-_JtCUM-52">
          <mxGeometry relative="1" as="geometry" />
        </mxCell>
        <mxCell id="VAKHH2p_I6ABRCXs9P8t-32" value="" style="group" vertex="1" connectable="0" parent="1">
          <mxGeometry x="200" y="800" width="160" height="40" as="geometry" />
        </mxCell>
        <mxCell id="VAKHH2p_I6ABRCXs9P8t-33" value="I" style="whiteSpace=wrap;html=1;align=center;" vertex="1" parent="VAKHH2p_I6ABRCXs9P8t-32">
          <mxGeometry x="40" width="40" height="40" as="geometry" />
        </mxCell>
        <mxCell id="VAKHH2p_I6ABRCXs9P8t-34" value="M" style="whiteSpace=wrap;html=1;align=center;" vertex="1" parent="VAKHH2p_I6ABRCXs9P8t-32">
          <mxGeometry x="80" width="40" height="40" as="geometry" />
        </mxCell>
        <mxCell id="VAKHH2p_I6ABRCXs9P8t-35" value="G" style="whiteSpace=wrap;html=1;align=center;" vertex="1" parent="VAKHH2p_I6ABRCXs9P8t-32">
          <mxGeometry width="40" height="40" as="geometry" />
        </mxCell>
        <mxCell id="VAKHH2p_I6ABRCXs9P8t-36" value="" style="whiteSpace=wrap;html=1;align=center;" vertex="1" parent="VAKHH2p_I6ABRCXs9P8t-32">
          <mxGeometry x="120" width="40" height="40" as="geometry" />
        </mxCell>
        <mxCell id="VAKHH2p_I6ABRCXs9P8t-37" value="" style="group" vertex="1" connectable="0" parent="1">
          <mxGeometry y="800" width="160" height="40" as="geometry" />
        </mxCell>
        <mxCell id="VAKHH2p_I6ABRCXs9P8t-38" value="D" style="whiteSpace=wrap;html=1;align=center;" vertex="1" parent="VAKHH2p_I6ABRCXs9P8t-37">
          <mxGeometry x="120" width="40" height="40" as="geometry" />
        </mxCell>
        <mxCell id="VAKHH2p_I6ABRCXs9P8t-39" value="C" style="whiteSpace=wrap;html=1;align=center;" vertex="1" parent="VAKHH2p_I6ABRCXs9P8t-37">
          <mxGeometry x="80" width="40" height="40" as="geometry" />
        </mxCell>
        <mxCell id="VAKHH2p_I6ABRCXs9P8t-40" value="A" style="whiteSpace=wrap;html=1;align=center;" vertex="1" parent="VAKHH2p_I6ABRCXs9P8t-37">
          <mxGeometry width="40" height="40" as="geometry" />
        </mxCell>
        <mxCell id="VAKHH2p_I6ABRCXs9P8t-41" value="B" style="whiteSpace=wrap;html=1;align=center;" vertex="1" parent="VAKHH2p_I6ABRCXs9P8t-37">
          <mxGeometry x="40" width="40" height="40" as="geometry" />
        </mxCell>
        <mxCell id="VAKHH2p_I6ABRCXs9P8t-42" value="" style="group" vertex="1" connectable="0" parent="1">
          <mxGeometry x="280" y="720" width="160" height="40" as="geometry" />
        </mxCell>
        <mxCell id="VAKHH2p_I6ABRCXs9P8t-43" value="P" style="whiteSpace=wrap;html=1;align=center;" vertex="1" parent="VAKHH2p_I6ABRCXs9P8t-42">
          <mxGeometry x="80" width="40" height="40" as="geometry" />
        </mxCell>
        <mxCell id="VAKHH2p_I6ABRCXs9P8t-44" value="M" style="whiteSpace=wrap;html=1;align=center;" vertex="1" parent="VAKHH2p_I6ABRCXs9P8t-42">
          <mxGeometry x="40" width="40" height="40" as="geometry" />
        </mxCell>
        <mxCell id="VAKHH2p_I6ABRCXs9P8t-45" value="D" style="whiteSpace=wrap;html=1;align=center;" vertex="1" parent="VAKHH2p_I6ABRCXs9P8t-42">
          <mxGeometry width="40" height="40" as="geometry" />
        </mxCell>
        <mxCell id="VAKHH2p_I6ABRCXs9P8t-46" value="" style="whiteSpace=wrap;html=1;align=center;" vertex="1" parent="VAKHH2p_I6ABRCXs9P8t-42">
          <mxGeometry x="120" width="40" height="40" as="geometry" />
        </mxCell>
        <mxCell id="VAKHH2p_I6ABRCXs9P8t-47" value="" style="group" vertex="1" connectable="0" parent="1">
          <mxGeometry x="600" y="800" width="160" height="40" as="geometry" />
        </mxCell>
        <mxCell id="VAKHH2p_I6ABRCXs9P8t-48" value="R" style="whiteSpace=wrap;html=1;align=center;" vertex="1" parent="VAKHH2p_I6ABRCXs9P8t-47">
          <mxGeometry width="40" height="40" as="geometry" />
        </mxCell>
        <mxCell id="VAKHH2p_I6ABRCXs9P8t-49" value="S" style="whiteSpace=wrap;html=1;align=center;" vertex="1" parent="VAKHH2p_I6ABRCXs9P8t-47">
          <mxGeometry x="40" width="40" height="40" as="geometry" />
        </mxCell>
        <mxCell id="VAKHH2p_I6ABRCXs9P8t-50" value="T" style="whiteSpace=wrap;html=1;align=center;" vertex="1" parent="VAKHH2p_I6ABRCXs9P8t-47">
          <mxGeometry x="80" width="40" height="40" as="geometry" />
        </mxCell>
        <mxCell id="VAKHH2p_I6ABRCXs9P8t-51" value="" style="whiteSpace=wrap;html=1;align=center;" vertex="1" parent="VAKHH2p_I6ABRCXs9P8t-47">
          <mxGeometry x="120" width="40" height="40" as="geometry" />
        </mxCell>
        <mxCell id="VAKHH2p_I6ABRCXs9P8t-52" value="" style="group" vertex="1" connectable="0" parent="1">
          <mxGeometry x="400" y="800" width="160" height="40" as="geometry" />
        </mxCell>
        <mxCell id="VAKHH2p_I6ABRCXs9P8t-53" value="P" style="whiteSpace=wrap;html=1;align=center;" vertex="1" parent="VAKHH2p_I6ABRCXs9P8t-52">
          <mxGeometry x="40" width="40" height="40" as="geometry" />
        </mxCell>
        <mxCell id="VAKHH2p_I6ABRCXs9P8t-54" value="" style="whiteSpace=wrap;html=1;align=center;" vertex="1" parent="VAKHH2p_I6ABRCXs9P8t-52">
          <mxGeometry x="80" width="40" height="40" as="geometry" />
        </mxCell>
        <mxCell id="VAKHH2p_I6ABRCXs9P8t-55" value="N" style="whiteSpace=wrap;html=1;align=center;" vertex="1" parent="VAKHH2p_I6ABRCXs9P8t-52">
          <mxGeometry width="40" height="40" as="geometry" />
        </mxCell>
        <mxCell id="VAKHH2p_I6ABRCXs9P8t-56" value="" style="whiteSpace=wrap;html=1;align=center;" vertex="1" parent="VAKHH2p_I6ABRCXs9P8t-52">
          <mxGeometry x="120" width="40" height="40" as="geometry" />
        </mxCell>
        <mxCell id="VAKHH2p_I6ABRCXs9P8t-57" style="edgeStyle=none;rounded=0;orthogonalLoop=1;jettySize=auto;html=1;exitX=0.5;exitY=1;exitDx=0;exitDy=0;entryX=0;entryY=0;entryDx=0;entryDy=0;endArrow=classic;endFill=1;" edge="1" source="VAKHH2p_I6ABRCXs9P8t-43" target="VAKHH2p_I6ABRCXs9P8t-54" parent="1">
          <mxGeometry relative="1" as="geometry" />
        </mxCell>
        <mxCell id="VAKHH2p_I6ABRCXs9P8t-58" style="edgeStyle=none;rounded=0;orthogonalLoop=1;jettySize=auto;html=1;exitX=0.5;exitY=1;exitDx=0;exitDy=0;entryX=0;entryY=0;entryDx=0;entryDy=0;endArrow=classic;endFill=1;" edge="1" source="VAKHH2p_I6ABRCXs9P8t-44" target="VAKHH2p_I6ABRCXs9P8t-34" parent="1">
          <mxGeometry relative="1" as="geometry" />
        </mxCell>
        <mxCell id="VAKHH2p_I6ABRCXs9P8t-59" style="edgeStyle=none;rounded=0;orthogonalLoop=1;jettySize=auto;html=1;exitX=0.5;exitY=1;exitDx=0;exitDy=0;entryX=1;entryY=0;entryDx=0;entryDy=0;endArrow=classic;endFill=1;" edge="1" source="VAKHH2p_I6ABRCXs9P8t-45" target="VAKHH2p_I6ABRCXs9P8t-41" parent="1">
          <mxGeometry relative="1" as="geometry" />
        </mxCell>
        <mxCell id="VAKHH2p_I6ABRCXs9P8t-60" value="" style="group" vertex="1" connectable="0" parent="1">
          <mxGeometry x="800" y="800" width="160" height="40" as="geometry" />
        </mxCell>
        <mxCell id="VAKHH2p_I6ABRCXs9P8t-61" value="U" style="whiteSpace=wrap;html=1;align=center;" vertex="1" parent="VAKHH2p_I6ABRCXs9P8t-60">
          <mxGeometry width="40" height="40" as="geometry" />
        </mxCell>
        <mxCell id="VAKHH2p_I6ABRCXs9P8t-62" value="W" style="whiteSpace=wrap;html=1;align=center;" vertex="1" parent="VAKHH2p_I6ABRCXs9P8t-60">
          <mxGeometry x="40" width="40" height="40" as="geometry" />
        </mxCell>
        <mxCell id="VAKHH2p_I6ABRCXs9P8t-63" value="" style="whiteSpace=wrap;html=1;align=center;" vertex="1" parent="VAKHH2p_I6ABRCXs9P8t-60">
          <mxGeometry x="80" width="40" height="40" as="geometry" />
        </mxCell>
        <mxCell id="VAKHH2p_I6ABRCXs9P8t-64" value="" style="whiteSpace=wrap;html=1;align=center;" vertex="1" parent="VAKHH2p_I6ABRCXs9P8t-60">
          <mxGeometry x="120" width="40" height="40" as="geometry" />
        </mxCell>
        <mxCell id="VAKHH2p_I6ABRCXs9P8t-65" value="" style="group" vertex="1" connectable="0" parent="1">
          <mxGeometry x="700" y="720" width="160" height="40" as="geometry" />
        </mxCell>
        <mxCell id="VAKHH2p_I6ABRCXs9P8t-66" value="T" style="whiteSpace=wrap;html=1;align=center;" vertex="1" parent="VAKHH2p_I6ABRCXs9P8t-65">
          <mxGeometry width="40" height="40" as="geometry" />
        </mxCell>
        <mxCell id="VAKHH2p_I6ABRCXs9P8t-67" value="W" style="whiteSpace=wrap;html=1;align=center;" vertex="1" parent="VAKHH2p_I6ABRCXs9P8t-65">
          <mxGeometry x="40" width="40" height="40" as="geometry" />
        </mxCell>
        <mxCell id="VAKHH2p_I6ABRCXs9P8t-68" value="" style="whiteSpace=wrap;html=1;align=center;" vertex="1" parent="VAKHH2p_I6ABRCXs9P8t-65">
          <mxGeometry x="80" width="40" height="40" as="geometry" />
        </mxCell>
        <mxCell id="VAKHH2p_I6ABRCXs9P8t-69" value="" style="whiteSpace=wrap;html=1;align=center;" vertex="1" parent="VAKHH2p_I6ABRCXs9P8t-65">
          <mxGeometry x="120" width="40" height="40" as="geometry" />
        </mxCell>
        <mxCell id="VAKHH2p_I6ABRCXs9P8t-71" style="edgeStyle=none;rounded=0;orthogonalLoop=1;jettySize=auto;html=1;exitX=0.5;exitY=1;exitDx=0;exitDy=0;entryX=0;entryY=0;entryDx=0;entryDy=0;endArrow=classic;endFill=1;" edge="1" parent="1" source="VAKHH2p_I6ABRCXs9P8t-66" target="VAKHH2p_I6ABRCXs9P8t-50">
          <mxGeometry relative="1" as="geometry" />
        </mxCell>
        <mxCell id="VAKHH2p_I6ABRCXs9P8t-72" style="edgeStyle=none;rounded=0;orthogonalLoop=1;jettySize=auto;html=1;exitX=0.5;exitY=1;exitDx=0;exitDy=0;entryX=1;entryY=0;entryDx=0;entryDy=0;endArrow=classic;endFill=1;" edge="1" parent="1" source="VAKHH2p_I6ABRCXs9P8t-67" target="VAKHH2p_I6ABRCXs9P8t-62">
          <mxGeometry relative="1" as="geometry" />
        </mxCell>
        <mxCell id="VAKHH2p_I6ABRCXs9P8t-73" value="" style="group" vertex="1" connectable="0" parent="1">
          <mxGeometry x="500" y="640" width="160" height="40" as="geometry" />
        </mxCell>
        <mxCell id="VAKHH2p_I6ABRCXs9P8t-74" value="P" style="whiteSpace=wrap;html=1;align=center;" vertex="1" parent="VAKHH2p_I6ABRCXs9P8t-73">
          <mxGeometry width="40" height="40" as="geometry" />
        </mxCell>
        <mxCell id="VAKHH2p_I6ABRCXs9P8t-75" value="W" style="whiteSpace=wrap;html=1;align=center;" vertex="1" parent="VAKHH2p_I6ABRCXs9P8t-73">
          <mxGeometry x="40" width="40" height="40" as="geometry" />
        </mxCell>
        <mxCell id="VAKHH2p_I6ABRCXs9P8t-76" value="" style="whiteSpace=wrap;html=1;align=center;" vertex="1" parent="VAKHH2p_I6ABRCXs9P8t-73">
          <mxGeometry x="80" width="40" height="40" as="geometry" />
        </mxCell>
        <mxCell id="VAKHH2p_I6ABRCXs9P8t-77" value="" style="whiteSpace=wrap;html=1;align=center;" vertex="1" parent="VAKHH2p_I6ABRCXs9P8t-73">
          <mxGeometry x="120" width="40" height="40" as="geometry" />
        </mxCell>
        <mxCell id="VAKHH2p_I6ABRCXs9P8t-78" style="edgeStyle=none;rounded=0;orthogonalLoop=1;jettySize=auto;html=1;exitX=0.5;exitY=1;exitDx=0;exitDy=0;entryX=0;entryY=0;entryDx=0;entryDy=0;endArrow=classic;endFill=1;" edge="1" parent="1" source="VAKHH2p_I6ABRCXs9P8t-74" target="VAKHH2p_I6ABRCXs9P8t-43">
          <mxGeometry relative="1" as="geometry" />
        </mxCell>
        <mxCell id="VAKHH2p_I6ABRCXs9P8t-79" style="edgeStyle=none;rounded=0;orthogonalLoop=1;jettySize=auto;html=1;exitX=0.5;exitY=1;exitDx=0;exitDy=0;entryX=1;entryY=0;entryDx=0;entryDy=0;endArrow=classic;endFill=1;" edge="1" parent="1" source="VAKHH2p_I6ABRCXs9P8t-75" target="VAKHH2p_I6ABRCXs9P8t-67">
          <mxGeometry relative="1" as="geometry" />
        </mxCell>
      </root>
    </mxGraphModel>
  </diagram>
</mxfile>
